<?xml version="1.0" encoding="UTF-8" standalone="no"?>
<svg
   width="105mm"
   height="148mm"
   viewBox="0 0 105 148"
   version="1.1"
   id="svg5"
   xmlns="http://www.w3.org/2000/svg"
   xmlns:svg="http://www.w3.org/2000/svg">
  <defs
     id="defs2" />
  <g
     id="layer2">
    <path
       style="fill:none;stroke:#000000;stroke-width:0.264583px;stroke-linecap:butt;stroke-linejoin:miter;stroke-opacity:1"
       d="M 30.871718,60.339419 C 28.30726,46.772871 20.300076,40.350412 12.70519,47.654038 11.378049,48.930284 9.3166367,48.742475 7.4928417,50.285065 l 1.4266068,-4.567534 c 0,0 -4.2848037,-1.169125 -4.8396323,-1.169125 -0.5548283,0 -2.2342641,-4.121679 -2.2342641,-4.121679 l 2.0076816,-0.969788 0.075749,-1.64156 -2.4425742,-1.421291 0.249839,-2.567826 3.5216656,0.456488 0.340206,-2.125956 -1.4352447,-2.431278 -1.1418835,-2.564505 2.9804587,-1.213977 6.0635774,0.358147 2.067151,-3.438276 2.353868,-1.685084 3.275813,7.053298 1.039889,-0.858489 -0.763471,-1.565479 3.676486,-4.632984 4.92701,2.746567 0.234225,-3.933966 2.899391,0.559812 0.650179,-3.258538 4.691457,0.839884 8.417446,-1.560828 -0.335886,1.917314 11.479964,3.952571 -2.664505,2.398055 1.79306,2.528954 -0.08505,4.005064 -11.991271,2.761186 2.231273,6.636345 c -7.226161,5.397647 5.299888,9.482424 9.085898,14.148125 3.723799,12.618582 9.071154,14.327688 14.054103,18.485422 l 7.041337,-1.692392 1.129925,2.525633 -2.738594,3.1891 12.021836,6.327037 10.233763,6.574552 -1.630598,5.751943 -4.709398,-5.735333 -6.820069,-2.514999 -3.293756,4.474509 -0.352499,5.31273 4.971529,2.807366 -0.03588,5.38084 -3.782468,0.93457 -0.748189,4.21669 -2.78444,2.18311 -1.765819,3.88944 -3.777816,-1.36248 0.335222,-2.44756 4.459227,-7.51344 -1.554313,-6.22214 c -0.966476,-2.301987 -1.891509,-4.637308 -3.569711,-6.366819 -1.542199,0.129087 -2.995536,0.415322 -6.040985,-2.113997 L 64.25113,86.023991 c -1.621369,-0.648453 -4.518728,0.02122 -5.159825,-1.072638 -1.553411,-2.650478 -2.959655,-5.562993 -5.204171,-4.997917 -3.474855,-0.01913 -8.07239,-1.78206 -23.015416,-19.614017 z"
       id="path162" />
    <path
       style="fill:none;stroke:#000000;stroke-width:0.264583px;stroke-linecap:butt;stroke-linejoin:miter;stroke-opacity:1"
       d="m 68.034592,129.94614 1.609667,-4.42468 -2.172801,-4.71272 4.924685,-7.58985 -10.290575,2.33593 -6.83801,0.43821 -4.116361,-2.88743 -6.555616,4.43497 7.262273,5.60776 9.568299,3.86818 1.109657,2.64158 z"
       id="path1037" />
  </g>
</svg>
